name analog
datacolumns 19
datarows 33
range 0.0 0.016
endheader
time	ground_force_vx	ground_force_vy	ground_force_vz	ground_force_px	ground_force_py	ground_force_pz	l_ground_force_vx	l_ground_force_vy	l_ground_force_vz	l_ground_force_px	l_ground_force_py	l_ground_force_pz	ground_torque_x	ground_torque_y	ground_torque_z	l_ground_torque_x	l_ground_torque_y	l_ground_torque_z
0.0	-0.0	-0.0	-0.0	9.451712608337402	35.38477325439453	-408.0714111328125	2.584064483642578	-37.0181884765625	-386.2828063964844	-0.0	-0.0	-0.0	-0.0	-0.0	-0.0	91921.328125	-36453.00390625	1937.344482421875
0.0005	-0.0	-0.0	-0.0	8.99158000946045	35.31011199951172	-406.025634765625	2.7692689895629883	-36.84929656982422	-384.41595458984375	-0.0	-0.0	-0.0	-0.0	-0.0	-0.0	92169.109375	-36584.8671875	1969.73193359375
0.001	-0.0	-0.0	-0.0	8.991616249084473	35.24376678466797	-406.4521789550781	2.89633846282959	-36.7418212890625	-385.312255859375	-0.0	-0.0	-0.0	-0.0	-0.0	-0.0	91784.0625	-36461.234375	1946.5682373046875
0.0015	-0.0	-0.0	-0.0	8.936004638671875	35.704200744628906	-407.996337890625	2.9274559020996094	-36.49589157104492	-385.46337890625	-0.0	-0.0	-0.0	-0.0	-0.0	-0.0	91886.59375	-36588.3046875	2135.015625
0.002	-0.0	-0.0	-0.0	9.133161544799805	36.04234313964844	-408.1294555664063	3.2317094802856445	-36.7797737121582	-386.01165771484375	-0.0	-0.0	-0.0	-0.0	-0.0	-0.0	91709.703125	-36678.96875	2022.858154296875
0.0025	-0.0	-0.0	-0.0	9.29322624206543	35.581485748291016	-409.27484130859375	2.9528846740722656	-36.666259765625	-384.8399658203125	-0.0	-0.0	-0.0	-0.0	-0.0	-0.0	92004.3515625	-36632.63671875	2075.630859375
0.003	-0.0	-0.0	-0.0	9.167560577392578	35.759666442871094	-407.9956359863281	3.048048257827759	-36.57806396484375	-386.7618408203125	-0.0	-0.0	-0.0	-0.0	-0.0	-0.0	92095.1015625	-36996.7734375	1991.028564453125
0.0035	-0.0	-0.0	-0.0	8.99193000793457	36.09781646728516	-407.579345703125	3.693800449371338	-36.35662460327149	-385.46337890625	-0.0	-0.0	-0.0	-0.0	-0.0	-0.0	92147.9140625	-36940.44921875	2154.46484375
0.004	-0.0	-0.0	-0.0	9.026293754577637	36.22124099731445	-409.1907043457031	3.876647472381592	-36.23065948486328	-386.10931396484375	-0.0	-0.0	-0.0	-0.0	-0.0	-0.0	92127.359375	-36959.9765625	2212.054443359375
0.0045000000000000005	-0.0	-0.0	-0.0	9.081257820129396	36.15240859985352	-409.4076843261719	4.491846561431885	-35.98941421508789	-387.2091674804688	-0.0	-0.0	-0.0	-0.0	-0.0	-0.0	92194.78125	-37244.83984375	2384.2880859375
0.005	-0.0	-0.0	-0.0	9.1342134475708	36.1159553527832	-411.3108825683594	4.561674118041992	-36.47686004638672	-385.81256103515625	-0.0	-0.0	-0.0	-0.0	-0.0	-0.0	92338.796875	-37229.0234375	2343.6953125
0.0055	-0.0	-0.0	-0.0	8.921051025390625	36.09781646728516	-410.3997192382813	4.860461235046387	-36.7418212890625	-386.3992309570313	-0.0	-0.0	-0.0	-0.0	-0.0	-0.0	92159.1328125	-37337.99609375	2498.3642578125
0.006	-0.0	-0.0	-0.0	9.064377784729004	36.59655380249024	-411.0975646972656	5.248266696929932	-36.211891174316406	-387.8906555175781	-0.0	-0.0	-0.0	-0.0	-0.0	-0.0	92179.7578125	-37502.98046875	2645.644287109375
0.006500000000000001	-0.0	-0.0	-0.0	8.761310577392578	36.312007904052734	-411.3122863769531	5.850930213928223	-36.91846466064453	-386.8599853515625	-0.0	-0.0	-0.0	-0.0	-0.0	-0.0	92353.140625	-37436.16796875	2617.61767578125
0.007	-0.0	-0.0	-0.0	8.760531425476074	36.79297256469727	-411.1711730957031	5.555443286895752	-36.903656005859375	-387.2817993164063	-0.0	-0.0	-0.0	-0.0	-0.0	-0.0	92506.5625	-37554.34765625	2711.32470703125
0.0075	-0.0	-0.0	-0.0	8.920941352844238	36.5967903137207	-410.8892822265625	5.7846221923828125	-37.01016616821289	-387.0775146484375	-0.0	-0.0	-0.0	-0.0	-0.0	-0.0	92369.1953125	-37546.34375	2728.829345703125
0.008	-0.0	-0.0	-0.0	8.724884033203125	36.73953628540039	-412.86767578125	5.977182865142822	-37.555023193359375	-389.6531982421875	-0.0	-0.0	-0.0	-0.0	-0.0	-0.0	92703.8828125	-37581.08984375	2794.35400390625
0.0085	-0.0	-0.0	-0.0	8.279799461364746	36.93593215942383	-411.1736450195313	5.907015800476074	-37.518497467041016	-389.59222412109375	-0.0	-0.0	-0.0	-0.0	-0.0	-0.0	92977.53125	-37677.21484375	2877.265380859375
0.009000000000000001	-0.0	-0.0	-0.0	8.101119995117188	37.13199615478516	-411.24163818359375	5.659224033355713	-37.76792144775391	-390.8341369628906	-0.0	-0.0	-0.0	-0.0	-0.0	-0.0	93009.8671875	-37632.43359375	2871.843505859375
0.0095	-0.0	-0.0	-0.0	7.796568870544434	36.722801208496094	-413.7218017578125	5.64555549621582	-38.15496826171875	-392.034423828125	-0.0	-0.0	-0.0	-0.0	-0.0	-0.0	93162.21875	-37702.98046875	2729.49658203125
0.01	-0.0	-0.0	-0.0	7.101701259613037	37.00802993774414	-411.0960693359375	5.659361362457275	-38.401885986328125	-392.45404052734375	-0.0	-0.0	-0.0	-0.0	-0.0	-0.0	93401.1953125	-37597.6171875	2724.009033203125
0.0105	-0.0	-0.0	-0.0	7.1368408203125	36.919132232666016	-412.2303466796875	5.357141971588135	-38.04865646362305	-393.1447143554688	-0.0	-0.0	-0.0	-0.0	-0.0	-0.0	93526.328125	-37695.953125	2693.5732421875
0.011	-0.0	-0.0	-0.0	7.441387176513672	36.96965026855469	-410.6021118164063	5.109241962432861	-38.15496826171875	-393.2814636230469	-0.0	-0.0	-0.0	-0.0	-0.0	-0.0	93492.2578125	-37603.23828125	2580.312744140625
0.0115	-0.0	-0.0	-0.0	6.477578163146973	37.22174835205078	-410.1973876953125	5.074469566345215	-38.420989990234375	-392.9992370605469	-0.0	-0.0	-0.0	-0.0	-0.0	-0.0	93308.84375	-37187.76171875	2681.269775390625
0.012	-0.0	-0.0	-0.0	6.083672046661377	37.38274383544922	-410.4734191894531	4.931969165802002	-38.33161163330078	-391.4660339355469	-0.0	-0.0	-0.0	-0.0	-0.0	-0.0	92999.53125	-36916.25	2633.870849609375
0.0125	-0.0	-0.0	-0.0	6.37132740020752	37.18464279174805	-409.9051513671875	4.89645528793335	-38.47273635864258	-389.16552734375	-0.0	-0.0	-0.0	-0.0	-0.0	-0.0	92491.375	-36720.890625	2621.7216796875
0.013000000000000001	-0.0	-0.0	-0.0	6.371438026428223	37.05801773071289	-408.7093505859375	4.399938583374023	-38.45538330078125	-389.2340087890625	-0.0	-0.0	-0.0	-0.0	-0.0	-0.0	92147.265625	-36527.359375	2526.70947265625
0.0135	-0.0	-0.0	-0.0	5.815842151641846	37.00284576416016	-408.2625122070313	4.258227348327637	-38.2786865234375	-388.6057739257813	-0.0	-0.0	-0.0	-0.0	-0.0	-0.0	92176.4375	-36163.1328125	2289.2509765625
0.014	-0.0	-0.0	-0.0	5.815784931182861	37.43846893310547	-408.2229919433594	3.672863006591797	-38.20812225341797	-387.62939453125	-0.0	-0.0	-0.0	-0.0	-0.0	-0.0	91656.7578125	-35660.46875	2170.195068359375
0.0145	-0.0	-0.0	-0.0	5.548116207122803	37.33247375488281	-404.6458740234375	2.945081949234009	-38.3667106628418	-387.6993408203125	-0.0	-0.0	-0.0	-0.0	-0.0	-0.0	91428.15625	-35479.9140625	2057.044189453125
0.015	-0.0	-0.0	-0.0	4.855627059936523	37.43476867675781	-404.3067932128906	2.2704074382781982	-37.977352142333984	-388.2604675292969	-0.0	-0.0	-0.0	-0.0	-0.0	-0.0	91381.03125	-35016.05859375	1938.060791015625
0.0155	-0.0	-0.0	-0.0	4.872725009918213	37.095157623291016	-403.8187255859375	2.1827917098999023	-38.27937698364258	-386.7223205566406	-0.0	-0.0	-0.0	-0.0	-0.0	-0.0	91422.84375	-34788.4609375	1712.3438720703125
0.016	-0.0	-0.0	-0.0	4.214547157287598	37.0059928894043	-402.2051086425781	1.916733264923096	-38.15496826171875	-385.8812561035156	-0.0	-0.0	-0.0	-0.0	-0.0	-0.0	91203.296875	-34805.18359375	1546.3585205078125
